<svg width="167" height="32" viewBox="0 0 167 32" fill="none" xmlns="http://www.w3.org/2000/svg">
<path d="M8.10639 2.93699C7.71614 2.91715 7.32909 3.01694 6.9971 3.22302C6.67591 3.49379 6.4732 3.87929 6.43207 4.29737C6.30827 5.05823 6.25457 5.82884 6.27163 6.59951V10.7853C6.30158 11.6984 6.1717 12.6097 5.8879 13.4781C5.6876 14.0717 5.375 14.6212 4.96708 15.0966C4.66979 15.4412 4.3271 15.7439 3.94849 15.9965C4.30779 16.2602 4.63761 16.562 4.93216 16.8964C5.32916 17.3509 5.64532 17.87 5.86695 18.4312C6.1608 19.1937 6.29846 20.0074 6.27163 20.8241V25.4423C6.25466 26.2153 6.30835 26.9883 6.43207 27.7515C6.47463 28.1691 6.67708 28.5541 6.9971 28.8258C7.32909 29.0319 7.71614 29.1317 8.10639 29.1118H9.69V32H7.43661C6.8506 32 6.27859 32 5.72746 31.9442C5.20905 31.919 4.70323 31.7758 4.24851 31.5256C3.75811 31.2028 3.39168 30.7232 3.20905 30.1653C2.91045 29.2449 2.77812 28.2787 2.81834 27.312V21.731C2.81722 21.0563 2.72339 20.3849 2.53936 19.7358C2.37709 19.1139 2.06852 18.5399 1.6394 18.0615C1.4343 17.8317 1.18105 17.6501 0.897663 17.5295C0.614278 17.4089 0.30776 17.3524 0 17.3639V14.4757C0.306641 14.479 0.610635 14.4188 0.892809 14.2987C1.17498 14.1786 1.42919 14.0013 1.6394 13.7781C2.0654 13.3055 2.37378 12.739 2.53936 12.1247C2.72528 11.4712 2.81913 10.795 2.81834 10.1155V4.26249C2.77464 3.39254 2.91249 2.52301 3.22302 1.70919C3.43154 1.20428 3.79566 0.779034 4.26247 0.495307C4.71512 0.251217 5.21448 0.10617 5.72746 0.0697666C6.27859 0.020933 6.8506 0 7.43661 0H9.69V2.92305L8.10639 2.93699Z" fill="#FFB300"/>
<path d="M77.743 29.0906C78.1517 29.1184 78.5588 29.0185 78.9081 28.8046C79.2174 28.5213 79.4112 28.1337 79.4523 27.7163C79.5782 26.958 79.6319 26.1895 79.6127 25.4211V20.768C79.5925 19.9563 79.7299 19.1484 80.0173 18.3891C80.2383 17.8249 80.5624 17.3068 80.973 16.8613C81.265 16.5438 81.5901 16.2585 81.9427 16.0102C81.5912 15.7422 81.26 15.4483 80.9521 15.1312C80.538 14.6949 80.2154 14.1802 80.0033 13.6173C79.7214 12.8496 79.5888 12.035 79.6127 11.2175V6.56435C79.6346 5.78662 79.5809 5.0086 79.4523 4.24127C79.4107 3.83789 79.2159 3.46583 78.9081 3.2018C78.5538 3.0021 78.1489 2.90998 77.743 2.9367H76.1943V0.0136719H78.4476C78.9918 0.0136719 79.5359 0.0136557 80.087 0.0624894C80.6054 0.0907365 81.1119 0.228659 81.573 0.467123C82.0481 0.754358 82.4176 1.18749 82.6264 1.70191C82.935 2.51138 83.0728 3.37597 83.0311 4.24127V9.82226C83.0344 10.3363 83.0763 10.8493 83.1566 11.357C83.2366 11.8943 83.377 12.4209 83.5752 12.9267C83.7602 13.3958 84.0571 13.8126 84.4402 14.1406C84.8324 14.4626 85.3282 14.6312 85.8355 14.6149V17.5449C85.3265 17.5326 84.8304 17.7062 84.4402 18.0333C84.0614 18.368 83.7653 18.7858 83.5752 19.2541C83.3753 19.7521 83.2348 20.272 83.1566 20.8029C83.0754 21.3222 83.0335 21.8469 83.0311 22.3725V27.8C83.0729 28.6567 82.9424 29.5131 82.6474 30.3184C82.4441 30.8265 82.0787 31.2533 81.6079 31.5323C81.1484 31.7749 80.641 31.9131 80.122 31.9369C79.5708 31.9369 79.0127 31.9927 78.4476 31.9927H76.1943V29.1046L77.743 29.0906Z" fill="#FFB300"/>
<path d="M92.6504 3.75293H94.1782V8.09215H98.8174V3.7878H100.345V13.8336H98.8174V9.48041H94.1782V13.8336H92.6504V3.75293Z" fill="#FFB300"/>
<path d="M101.978 8.78939C101.978 5.53846 103.743 3.5293 106.659 3.5293C109.575 3.5293 111.361 5.53846 111.361 8.78939C111.361 12.0403 109.603 14.0285 106.659 14.0285C103.715 14.0285 101.978 12.0473 101.978 8.78939ZM109.777 8.78939C109.777 6.36863 108.612 4.92454 106.659 4.92454C104.705 4.92454 103.561 6.36863 103.561 8.78939C103.561 11.2101 104.719 12.6263 106.659 12.6263C108.598 12.6263 109.763 11.2101 109.763 8.78939H109.777Z" fill="#FFB300"/>
<path d="M114.646 5.15501H111.562V3.75977H119.236V5.15501H116.153V13.7986H114.646V5.15501Z" fill="#FFB300"/>
<path d="M92.6504 17.0146H99.1871V18.4099H94.1782V21.3399H99.0197V22.7421H94.1782V25.7001H99.2988V27.0953H92.6504V17.0146Z" fill="#FFB300"/>
<path d="M103.589 22.0441L100.275 17.0352H102.075L104.551 20.8581L106.986 17.0352H108.772L105.458 22.0162L108.814 27.0879H107.014L104.524 23.2091L102.033 27.0879H100.247L103.589 22.0441Z" fill="#FFB300"/>
<path d="M109.066 22.0452C109.066 18.8083 110.908 16.7852 113.671 16.7852C116.161 16.7852 117.487 18.1106 117.912 20.2733L116.315 20.357C116.248 19.7177 115.934 19.1298 115.44 18.7182C114.946 18.3065 114.312 18.1036 113.671 18.1525C111.843 18.1525 110.657 19.6245 110.657 22.0104C110.657 24.3962 111.857 25.8473 113.657 25.8473C113.996 25.8709 114.336 25.8267 114.657 25.7172C114.979 25.6078 115.275 25.4353 115.529 25.2099C115.783 24.9845 115.99 24.7106 116.136 24.4044C116.283 24.0982 116.368 23.7658 116.384 23.4265L117.989 23.5172C117.605 25.7915 116.133 27.2495 113.657 27.2495C110.936 27.2914 109.066 25.3241 109.066 22.0452Z" fill="#FFB300"/>
<path d="M119.726 17.0146H121.253V21.3469H125.9V17.0425H127.427V27.0953H125.9V22.7421H121.253V27.1023H119.726V17.0146Z" fill="#FFB300"/>
<path d="M132.409 17.0146H134.348L137.969 27.0674H136.343L135.422 24.4443H131.32L130.414 27.0674H128.788L132.409 17.0146ZM134.955 23.0561L133.371 18.4727L131.802 23.0561H134.955Z" fill="#FFB300"/>
<path d="M139.161 17.0146H141.101L145.74 25.2117V17.0146H147.268V27.0674H145.258L140.689 19.0517V27.0674H139.161V17.0146Z" fill="#FFB300"/>
<path d="M148.899 22.0441C148.899 19.0304 150.609 16.784 153.497 16.784C154.495 16.7039 155.486 17.0103 156.265 17.64C157.044 18.2696 157.552 19.1745 157.682 20.1675L156.078 20.2512C156.05 19.9459 155.962 19.6491 155.818 19.3782C155.675 19.1072 155.479 18.8674 155.242 18.6727C155.005 18.478 154.732 18.3323 154.439 18.244C154.145 18.1557 153.837 18.1266 153.532 18.1583C151.439 18.1583 150.518 19.9094 150.518 22.0162C150.518 24.123 151.453 25.8531 153.546 25.8531C153.9 25.8645 154.253 25.8039 154.583 25.6749C154.914 25.546 155.214 25.3514 155.467 25.103C155.72 24.8546 155.92 24.5574 156.055 24.2295C156.19 23.9016 156.257 23.5497 156.252 23.1952H153.56V21.9046H157.745V27.0321H156.699L156.622 25.4276C156.331 25.9964 155.883 26.4705 155.332 26.7942C154.781 27.1179 154.149 27.2779 153.511 27.2554C150.581 27.2902 148.899 25.1137 148.899 22.0441Z" fill="#FFB300"/>
<path d="M159.587 17.0146H166.124V18.4099H161.115V21.3399H165.956V22.7421H161.115V25.7001H166.235V27.0953H159.587V17.0146Z" fill="#FFB300"/>
<path d="M13.4922 27.1448V3.53027H18.536V14.8736C19.1011 12.0831 20.7545 9.5159 24.3123 9.5159C27.5912 9.5159 29.6003 11.5251 29.6003 15.0969V27.1518H24.5635V16.8549C24.5635 14.762 23.9984 13.4365 21.7102 13.4365C19.3104 13.4365 18.536 14.776 18.536 17.6223V27.1797L13.4922 27.1448Z" fill="#F6E2D2"/>
<path d="M32.5723 18.508C32.5723 13.1851 35.9209 9.51562 40.9996 9.51562C46.4969 9.51562 49.2455 13.1851 49.2455 17.6987C49.2533 18.4003 49.1949 19.101 49.0711 19.7916H37.2952C37.6161 22.2193 39.2346 23.3844 41.4809 23.3844C43.9087 23.3844 45.2132 22.324 45.8481 20.845L48.9176 23.9146C47.6131 25.7842 45.283 27.4725 41.4042 27.4725C35.9209 27.4934 32.5723 23.8309 32.5723 18.508ZM37.2952 16.9174H44.697C44.5226 14.6292 43.3017 13.4293 41.0344 13.4293C38.8858 13.3944 37.5463 14.5943 37.2952 16.9174Z" fill="#F6E2D2"/>
<path d="M52.3419 26.4054C52.0438 26.147 51.808 25.8245 51.6522 25.4621C51.4964 25.0997 51.4245 24.7067 51.442 24.3126C51.4302 23.8167 51.613 23.3359 51.9513 22.9731C52.0986 22.7989 52.2825 22.6592 52.4898 22.5639C52.6972 22.4687 52.923 22.4202 53.1512 22.422C53.9744 22.422 54.4557 22.9243 54.5464 23.9428C54.672 24.8358 54.9929 25.2753 55.5161 25.2753C55.8945 25.2736 56.2611 25.1432 56.5556 24.9055C57.033 24.4779 57.4444 23.9818 57.7764 23.4335L62.4784 16.7085L64.362 15.8783L67.1525 11.6367C67.7898 10.6209 68.5912 9.71797 69.5244 8.96484C70.2569 8.39634 71.1575 8.08716 72.0847 8.08582C72.8375 8.04434 73.5802 8.27459 74.1776 8.73463C74.4216 8.91731 74.6198 9.15419 74.7566 9.42659C74.8935 9.69899 74.9651 9.99946 74.9659 10.3043C74.9795 10.868 74.7998 11.4195 74.4566 11.867C74.3221 12.0622 74.1433 12.2229 73.9347 12.3356C73.7261 12.4484 73.4938 12.5101 73.2567 12.5157C73.0855 12.5304 72.9131 12.5088 72.7508 12.4523C72.5885 12.3958 72.4399 12.3057 72.3149 12.1879C72.0769 11.8983 71.9246 11.5479 71.8754 11.1763C71.8322 10.8215 71.7055 10.482 71.5057 10.1857C71.4189 10.06 71.3017 9.95836 71.1651 9.89007C71.0286 9.82178 70.877 9.78908 70.7244 9.79501C70.2126 9.8081 69.7205 9.99511 69.3291 10.3252C68.7251 10.844 68.2111 11.4592 67.8083 12.146L64.8573 16.5201L62.9249 17.3991L58.3136 24.173C57.7768 25.0264 57.1161 25.7952 56.3532 26.4543C55.8004 26.9069 55.1075 27.1535 54.393 27.1519C53.6412 27.1615 52.9117 26.896 52.3419 26.4054ZM64.0202 25.666C62.9808 24.6544 62.1924 23.022 61.6761 20.7826L59.8275 12.8994C59.6489 11.9473 59.3389 11.0246 58.9066 10.1578C58.7752 9.92129 58.5816 9.72536 58.3467 9.59129C58.1117 9.45722 57.8445 9.39014 57.5741 9.39736C57.2787 9.41567 56.9904 9.49522 56.7273 9.63093C56.4643 9.76664 56.2324 9.95555 56.0463 10.1857C55.4406 10.9232 55.0367 11.8055 54.8743 12.746C54.8371 12.9274 54.6976 13.018 54.4557 13.018C54.3639 13.0188 54.2748 12.9867 54.2046 12.9273C54.1649 12.8942 54.1368 12.8493 54.1243 12.7992C54.1118 12.749 54.1154 12.6962 54.1348 12.6483C54.3238 11.3318 54.9592 10.1201 55.9347 9.21597C56.9561 8.41252 58.2374 8.01277 59.5345 8.09281C60.2778 8.06806 61.0185 8.19443 61.7115 8.46423C62.4046 8.73403 63.0358 9.14166 63.5667 9.66246C64.6271 10.7089 65.3875 12.3367 65.848 14.5458L67.3269 20.5873C67.5332 21.7145 67.8318 22.8228 68.2198 23.901C68.3927 24.4371 68.6755 24.9313 69.05 25.352C69.3255 25.5873 69.6786 25.7116 70.0407 25.7008C70.3412 25.6843 70.6324 25.591 70.8864 25.4298C71.1405 25.2686 71.3489 25.0448 71.4917 24.78C71.972 24.0042 72.2944 23.1412 72.4405 22.2406C72.5033 21.9964 72.6079 21.8709 72.7614 21.8709C72.9148 21.8709 73.0683 21.9964 73.0404 22.2406C73.0289 23.5495 72.5317 24.8075 71.6452 25.7706C71.1561 26.2525 70.571 26.6258 69.9279 26.8662C69.2848 27.1066 68.5982 27.2087 67.9129 27.1658C67.1964 27.1916 66.4821 27.0721 65.8131 26.8143C65.144 26.5565 64.5342 26.1659 64.0202 25.666Z" fill="#FFB300"/>
</svg>
